<?xml version="1.0" encoding="UTF-8"?>
<!DOCTYPE svg PUBLIC "-//W3C//DTD SVG 1.1//EN" "http://www.w3.org/Graphics/SVG/1.1/DTD/svg11.dtd">
<svg xmlns="http://www.w3.org/2000/svg" version="1.1" width="773px" height="323px" style="shape-rendering:geometricPrecision; text-rendering:geometricPrecision; image-rendering:optimizeQuality; fill-rule:evenodd; clip-rule:evenodd" xmlns:xlink="http://www.w3.org/1999/xlink">
<g><path style="opacity:1" fill="#fec910" d="M 387.5,54.5 C 386.335,103.332 386.168,152.332 387,201.5C 387.232,202.737 387.732,203.737 388.5,204.5C 390.657,206.412 392.991,208.079 395.5,209.5C 395.904,210.756 396.571,211.923 397.5,213C 396.944,214.011 396.278,214.844 395.5,215.5C 392.426,213.098 389.092,211.098 385.5,209.5C 362.032,224.47 338.699,239.636 315.5,255C 313.866,255.494 312.199,255.66 310.5,255.5C 317.613,229.324 325.446,203.324 334,177.5C 334.667,175.833 334.667,174.167 334,172.5C 312.112,156.279 289.945,140.445 267.5,125C 266.446,123.612 266.28,122.112 267,120.5C 286.742,118.893 306.575,117.893 326.5,117.5C 331.413,117.513 336.247,117.846 341,118.5C 345.784,117.857 350.617,117.191 355.5,116.5C 361.574,98.9591 367.907,81.2925 374.5,63.5C 376.045,62.7703 376.878,61.437 377,59.5C 377.605,61.4812 378.605,61.8146 380,60.5C 380.096,57.5488 380.929,54.8822 382.5,52.5C 383.425,53.6405 384.259,53.6405 385,52.5C 385.57,46.6411 386.737,46.3077 388.5,51.5C 387.873,52.4168 387.539,53.4168 387.5,54.5 Z"/></g>
<g><path style="opacity:0.97" fill="#f8c736" d="M 456.5,118.5 C 472.187,118.345 487.854,118.845 503.5,120C 504.252,120.671 504.586,121.504 504.5,122.5C 503.711,122.217 503.044,121.717 502.5,121C 486.801,121.154 471.467,120.321 456.5,118.5 Z"/></g>
<g><path style="opacity:1" fill="#f8c828" d="M 456.5,118.5 C 471.467,120.321 486.801,121.154 502.5,121C 503.044,121.717 503.711,122.217 504.5,122.5C 482.245,139.735 459.412,156.402 436,172.5C 443.536,199.446 451.702,226.28 460.5,253C 460.355,253.772 460.022,254.439 459.5,255C 457.833,255.667 456.167,255.667 454.5,255C 434.768,241.81 415.101,228.643 395.5,215.5C 396.278,214.844 396.944,214.011 397.5,213C 396.571,211.923 395.904,210.756 395.5,209.5C 414.32,222.226 433.32,234.392 452.5,246C 444.541,221.141 436.875,196.475 429.5,172C 429.759,170.739 430.426,169.739 431.5,169C 452.185,154.991 472.519,140.491 492.5,125.5C 470.134,124.549 447.467,123.549 424.5,122.5C 420.688,121.676 416.688,121.176 412.5,121C 412.026,119.271 411.026,118.105 409.5,117.5C 402.567,97.2003 395.733,76.867 389,56.5C 388.5,105.832 388.333,155.166 388.5,204.5C 387.732,203.737 387.232,202.737 387,201.5C 386.168,152.332 386.335,103.332 387.5,54.5C 387.539,53.4168 387.873,52.4168 388.5,51.5C 386.737,46.3077 385.57,46.6411 385,52.5C 384.259,53.6405 383.425,53.6405 382.5,52.5C 380.929,54.8822 380.096,57.5488 380,60.5C 378.605,61.8146 377.605,61.4812 377,59.5C 376.878,61.437 376.045,62.7703 374.5,63.5C 377.166,54.3348 380.333,45.3348 384,36.5C 385.587,35.273 386.921,35.6063 388,37.5C 397.341,64.0239 406.175,90.6906 414.5,117.5C 428.801,117.505 442.801,117.839 456.5,118.5 Z"/></g>
<g><path style="opacity:0.431" fill="#eccb56" d="M 409.5,117.5 C 411.026,118.105 412.026,119.271 412.5,121C 416.688,121.176 420.688,121.676 424.5,122.5C 420.154,122.666 415.821,122.499 411.5,122C 410.733,120.53 410.067,119.03 409.5,117.5 Z"/></g>
</svg>
