<?xml version="1.0" encoding="UTF-8"?>
<!DOCTYPE svg PUBLIC "-//W3C//DTD SVG 1.1//EN" "http://www.w3.org/Graphics/SVG/1.1/DTD/svg11.dtd">
<svg xmlns="http://www.w3.org/2000/svg" version="1.1" width="773px" height="323px" style="shape-rendering:geometricPrecision; text-rendering:geometricPrecision; image-rendering:optimizeQuality; fill-rule:evenodd; clip-rule:evenodd" xmlns:xlink="http://www.w3.org/1999/xlink">
<g><path style="opacity:1" fill="#fec90f" d="M 360.5,28.5 C 362.911,28.1367 364.411,29.1367 365,31.5C 373.343,57.4794 382.177,82.9794 391.5,108C 415.322,109.837 438.822,110.337 462,109.5C 462.689,110.357 463.522,111.023 464.5,111.5C 469.233,111.033 474.066,111.033 479,111.5C 479.825,113.701 479.325,115.534 477.5,117C 454.993,132.086 432.66,147.42 410.5,163C 418.688,187.831 426.855,212.998 435,238.5C 436.386,244.12 434.552,245.62 429.5,243C 407.261,227.759 384.761,212.925 362,198.5C 338.638,212.531 315.805,227.364 293.5,243C 290.582,245.41 288.582,244.91 287.5,241.5C 295.548,215.192 303.881,189.025 312.5,163C 289.579,147.29 266.746,131.457 244,115.5C 243.116,113.359 243.616,111.693 245.5,110.5C 248.013,110.964 250.847,111.298 254,111.5C 256.917,111.665 259.583,110.998 262,109.5C 262.414,109.957 262.914,110.291 263.5,110.5C 286.143,109.852 308.809,109.018 331.5,108C 341.299,81.4267 350.966,54.9267 360.5,28.5 Z"/></g>
</svg>
